<?xml version="1.0" encoding="UTF-8"?>
<svg id="svg5583" xmlns="http://www.w3.org/2000/svg" xmlns:svg="http://www.w3.org/2000/svg" xmlns:rdf="http://www.w3.org/1999/02/22-rdf-syntax-ns#" xmlns:dc="http://purl.org/dc/elements/1.1/" xmlns:cc="http://creativecommons.org/ns#" version="1.1" viewBox="0 0 272.5 279.3">
  <!-- Generator: Adobe Illustrator 30.1.0, SVG Export Plug-In . SVG Version: 2.1.1 Build 136)  -->
  <defs>
    <style>
      .st0 {
        fill: #fff;
      }

      .st0, .st1 {
        stroke: #fc0;
        stroke-miterlimit: 3.3;
        stroke-width: 0px;
      }

      .st1 {
        fill: #fc0;
      }
    </style>
  </defs>
  <circle class="st1" cx="136.8" cy="141.1" r="131.4"/>
  <path d="M109.4,51.8v120.5c0,13.8-8.1,21.4-24.1,21.4s-9.4-1.6-14.1-4v17.1c4.2,1.8,14.1,14.4,14.1,14.4,7.8,3.4,16.6,6.3,31.7,6.3,34.4,0,76.8-17.4,76.8-45.3v-116l-14.1-14.4h-70.2Z"/>
  <path class="st0" d="M109.4,172.3c0,13.8-8.1,21.4-24.1,21.4s-9.5-1.6-14.1-4v17.1c7.9,3.4,16.7,6.2,31.7,6.2,34.5,0,76.8-17.3,76.8-45.2V51.8h-70.2v120.5Z"/>
</svg>
