<?xml version="1.0" encoding="UTF-8"?>
<svg id="Laag_1" xmlns="http://www.w3.org/2000/svg" xmlns:xlink="http://www.w3.org/1999/xlink" version="1.1" viewBox="0 0 382.2 400">
  <!-- Generator: Adobe Illustrator 30.1.0, SVG Export Plug-In . SVG Version: 2.1.1 Build 136)  -->
  <defs>
    <style>
      .st0 {
        fill: #7fbb1e;
      }

      .st1 {
        clip-path: url(#clippath-1);
      }

      .st2 {
        clip-path: url(#clippath-3);
      }

      .st3 {
        clip-path: url(#clippath-2);
      }

      .st4 {
        clip-rule: evenodd;
        fill: none;
      }

      .st5 {
        fill: #e2141e;
      }

      .st6 {
        fill: #237647;
      }

      .st7 {
        fill: #554da7;
      }

      .st8 {
        clip-path: url(#clippath);
      }
    </style>
    <clipPath id="clippath">
      <path class="st4" d="M341.6,363.5c-29.4,29.1-74.2,31.6-106.3,6.2-20.6-16.4-33.4-41-33.3-67.8v-63c.2-15.1,13.2-26.5,27.6-26.5h56.5c23.1,0,44.3,10.7,59.6,28,31.1,35.3,29.6,89.8-4.1,123.1"/>
    </clipPath>
    <clipPath id="clippath-1">
      <path class="st4" d="M155,187.5h-57.7c-22.5,0-43.3-10.5-58.1-27.4-30.3-34.5-29.5-87.2,1.3-120.9,26.2-28.7,67.8-34.8,101-14.2,24.4,15.2,40.3,42,40.3,71.1v64.3c0,14.4-12,27-26.8,27"/>
    </clipPath>
    <clipPath id="clippath-2">
      <path class="st4" d="M179,302.6c0,26.4-12.3,50.5-32.1,66.5-35.4,28.6-86,22.5-113.8-13.4-25.4-32.7-25.4-79.7.4-112.4,15.7-19.9,38.7-31,63.9-31h53.5c14.6,0,27.9,11.4,27.9,26.8v63.5Z"/>
    </clipPath>
    <clipPath id="clippath-3">
      <path class="st4" d="M227.8,187.3c-13.6,0-24.5-13.2-24.6-26.3l-.2-62.1c0-24,9.4-46.4,26.2-63,31.2-30.7,80.1-30.7,111.6-.3,32.9,31.8,36.5,84.4,8,120.7-15.7,20-39,31.4-64.4,31.3l-56.6-.3Z"/>
    </clipPath>
  </defs>
  <g class="st8">
    <rect class="st6" x="201" y="211.4" width="168.2" height="177.4"/>
  </g>
  <g class="st1">
    <rect class="st0" x="13.2" y="11.8" width="169.6" height="176.6"/>
  </g>
  <g class="st3">
    <rect class="st7" x="13.2" y="211.3" width="166.9" height="177.5"/>
  </g>
  <g class="st2">
    <rect class="st5" x="201.9" y="11.8" width="167.3" height="176.9"/>
  </g>
</svg>